<?xml version="1.0" standalone="no"?>
<!DOCTYPE svg PUBLIC "-//W3C//DTD SVG 20010904//EN"
 "http://www.w3.org/TR/2001/REC-SVG-20010904/DTD/svg10.dtd">
<svg version="1.0" xmlns="http://www.w3.org/2000/svg"
 width="360.000000pt" height="360.000000pt" viewBox="0 0 360.000000 360.000000"
 preserveAspectRatio="xMidYMid meet">
<metadata>
Created by potrace 1.11, written by Peter Selinger 2001-2013
</metadata>
<g transform="translate(0.000000,360.000000) scale(0.100000,-0.100000)"
fill="#000000" stroke="none">
<path d="M1687 2920 c-19 -23 -50 -69 -68 -103 -32 -59 -34 -67 -34 -167 0
-98 2 -109 31 -166 l31 -61 -76 -56 c-264 -192 -468 -444 -531 -655 -29 -97
-25 -241 9 -317 40 -90 117 -152 220 -175 65 -15 192 -8 271 15 68 20 196 85
262 132 27 20 51 33 53 31 6 -5 -150 -237 -217 -324 -74 -97 -194 -219 -266
-274 -141 -105 -260 -150 -402 -150 -90 1 -147 13 -215 46 -103 52 -156 127
-158 228 l-2 61 50 2 c73 4 102 40 97 119 -1 12 -14 34 -29 49 -25 24 -33 27
-80 23 -33 -3 -61 -12 -74 -24 -60 -53 -76 -177 -37 -281 42 -114 175 -216
317 -244 85 -16 276 -6 364 20 308 90 582 345 851 789 31 52 95 141 142 199
72 89 85 110 82 137 -3 29 -6 31 -47 34 -104 8 -183 -58 -257 -213 -34 -71
-58 -106 -95 -139 -156 -140 -364 -222 -500 -196 -125 24 -179 107 -179 275 0
103 19 176 76 295 84 176 234 373 372 489 l49 40 49 -40 c69 -58 133 -88 243
-114 222 -54 480 -36 643 44 127 64 190 146 191 251 0 93 -45 152 -145 186
-42 15 -82 18 -193 18 -226 -1 -396 -47 -655 -176 -155 -77 -155 -77 -172 -57
-26 30 -48 114 -48 179 0 95 30 170 110 272 34 43 5 42 -33 -2z m941 -265 c58
-24 82 -60 82 -127 0 -104 -78 -210 -195 -264 -181 -84 -474 -76 -659 17 -57
29 -126 84 -126 100 0 12 88 73 185 128 133 76 308 140 440 161 84 13 222 5
273 -15z"/>
</g>
</svg>
